Coordinates
version=1
nRows=9
nColumns=42
inDegrees=yes

Units are S.I. units (second, meters, Newtons, ...)
If the header above contains a line with 'inDegrees', this indicates whether rotational values are in degrees (yes) or radians (no).

endheader
time	pelvis_tilt	pelvis_list	pelvis_rotation	pelvis_tx	pelvis_ty	pelvis_tz	hip_flexion_r	hip_adduction_r	hip_rotation_r	knee_angle_r	knee_adduction_r	knee_angle_r_beta	ankle_angle_r	subtalar_angle_r	mtp_angle_r	hip_flexion_l	hip_adduction_l	hip_rotation_l	knee_angle_l	knee_adduction_l	knee_angle_l_beta	ankle_angle_l	subtalar_angle_l	mtp_angle_l	lumbar_extension	lumbar_bending	lumbar_rotation	arm_flex_r	arm_add_r	arm_rot_r	elbow_flex_r	pro_sup_r	wrist_flex_r	wrist_dev_r	arm_flex_l	arm_add_l	arm_rot_l	elbow_flex_l	pro_sup_l	wrist_flex_l	wrist_dev_l
      1.07000000	      8.93509367	     -3.00757581	      3.25337498	     -1.01757431	      0.90469647	      0.20953911	     -1.01525406	      4.67948450	     -9.92407834	     24.12652908	      7.21299565	      0.42108737	     19.16164620	     12.79950924	     -7.93953108	     16.21931040	     -3.04641139	     -6.02980750	     71.92448891	     -5.28096302	      1.25531914	      7.99037433	    -16.64522011	     -7.93953108	    -20.04613035	      6.43810918	     -2.78347924	      7.25114827	    -12.06795017	    -10.24470917	     34.57015097	     90.00000001	      0.00000000	      0.00000000	     -5.83592095	     -6.73835482	    -27.60618133	     33.21187306	     90.00000001	      0.00000000	      0.00000000
      1.08000000	      8.95138896	     -2.82000992	      3.10202239	     -1.01068126	      0.90506077	      0.21002139	     -1.66305540	      4.64378489	     -9.54245910	     23.87468858	      7.12691410	      0.41669192	     19.41910720	     12.70177142	     -7.93254524	     17.43696937	     -2.54262927	     -5.91568357	     70.79723362	     -5.23241578	      1.23564483	      8.45845521	    -16.12464156	     -7.93254524	    -20.26319408	      6.19657877	     -2.56358114	      7.91368530	    -12.19089383	     -9.76584639	     34.74184141	     90.00000001	      0.00000000	      0.00000000	     -6.04651613	     -6.59482208	    -27.59726344	     33.71941841	     90.00000001	      0.00000000	      0.00000000
      1.09000000	      9.28267583	     -2.51592730	      2.86492129	     -1.00359120	      0.90603438	      0.21044785	     -2.88093428	      4.36846562	     -8.83209630	     23.26115016	      7.38489900	      0.40598366	     19.81955120	     12.49414104	     -7.91953608	     18.04412433	     -1.96349494	     -6.18485872	     69.15012926	     -5.34241718	      1.20689743	      8.96786095	    -15.47802278	     -7.91953608	    -20.82130628	      5.82785901	     -2.40091871	      8.74930600	    -12.41842299	     -8.49411476	     34.68484132	     90.00000001	      0.00000000	      0.00000000	     -6.38855101	     -6.39681786	    -27.71850087	     34.59095674	     90.00000001	      0.00000000	      0.00000000
      1.10000000	      9.33370086	     -2.29203853	      2.62388380	     -0.99662438	      0.90643048	      0.21107304	     -3.58217200	      4.28818250	     -8.38454119	     22.96747919	      7.26060081	      0.40085813	     20.05378921	     12.35334421	     -7.90848890	     18.95288207	     -1.51811270	     -6.36052348	     67.34322993	     -5.36309065	      1.17536109	      9.33342292	    -14.69343457	     -7.90848890	    -21.05400594	      5.50377665	     -2.14737655	      9.43308786	    -12.52617572	     -7.77165058	     34.76373464	     90.00000001	      0.00000000	      0.00000000	     -6.61249091	     -6.21815567	    -27.78715061	     35.14920814	     90.00000001	      0.00000000	      0.00000000
      1.11000000	      9.42750888	     -2.07165044	      2.34915160	     -0.98955854	      0.90683835	      0.21169149	     -4.34931678	      4.13523210	     -7.94628684	     22.67230012	      7.26196226	      0.39570629	     20.29898999	     12.30278823	     -7.89640172	     19.68385183	     -1.09452531	     -6.61278825	     65.24369052	     -5.40371173	      1.13871722	      9.60140843	    -13.72126264	     -7.89640172	    -21.31760967	      5.18660012	     -1.89899331	     10.15690645	    -12.64010725	     -7.04630626	     34.75712913	     90.00000001	      0.00000000	      0.00000000	     -6.87529969	     -6.01683386	    -27.89848109	     35.75397368	     90.00000001	      0.00000000	      0.00000000
      1.12000000	      9.46735227	     -1.85778737	      2.06402825	     -0.98241967	      0.90705316	      0.21228880	     -5.04788723	      3.99937983	     -7.55879647	     22.38684061	      7.19155877	      0.39072408	     20.50601570	     12.34864802	     -7.88277421	     20.36967121	     -0.67828868	     -6.93458134	     62.89336901	     -5.50049291	      1.09769637	      9.85156693	    -12.57829596	     -7.88277421	    -21.49479897	      4.87080807	     -1.65336289	     10.83791093	    -12.72050830	     -6.35565451	     34.75646400	     90.00000001	      0.00000000	      0.00000000	     -7.12294568	     -5.79396357	    -28.03602183	     36.30261949	     90.00000001	      0.00000000	      0.00000000
      1.13000000	      9.15456816	     -1.89615360	      1.85997592	     -0.97544532	      0.90641998	      0.21291431	     -5.18207534	      4.20155875	     -7.37192272	     22.37091845	      6.92963468	      0.39044618	     20.57446213	     12.36168010	     -7.87661888	     21.55860017	     -0.56660976	     -6.75244267	     60.69408029	     -5.24895039	      1.05931154	      9.88590760	    -11.83700362	     -7.87661888	    -21.26520475	      4.85194192	     -1.36052350	     11.35826335	    -12.76363548	     -6.14631120	     34.94990110	     90.00000001	      0.00000000	      0.00000000	     -7.33728344	     -5.56627014	    -28.01137830	     36.64720062	     90.00000001	      0.00000000	      0.00000000
      1.14000000	      9.32840666	     -1.57297627	      1.48695319	     -0.96817484	      0.90679113	      0.21361684	     -6.05096230	      3.88135850	     -6.97871055	     22.10183309	      6.91973151	      0.38574976	     21.09530172	     12.50688662	     -7.86709628	     21.73918539	     -0.13982212	     -6.88736476	     57.74832916	     -4.93622461	      1.00789848	     10.19199055	    -10.62303570	     -7.86709628	    -21.58945774	      4.37175862	     -1.16105069	     12.18066760	    -12.75017129	     -5.50780663	     34.65518423	     90.00000001	      0.00000000	      0.00000000	     -7.63287267	     -5.37053251	    -28.18750584	     37.25316348	     90.00000001	      0.00000000	      0.00000000
      1.15000000	      9.04828713	     -1.58757643	      1.28089890	     -0.96105297	      0.90607308	      0.21407913	     -6.28834018	      4.01836311	     -6.76177517	     21.98513883	      6.71049161	      0.38371306	     21.19086893	     12.65917202	     -7.86032278	     22.63094202	      0.03320161	     -6.81385672	     55.09378646	     -4.83549658	      0.96156797	     10.24275602	     -9.64344060	     -7.86032278	    -21.36829415	      4.33181707	     -0.91196526	     12.71027395	    -12.77950736	     -5.18296785	     34.75022388	     90.00000001	      0.00000000	      0.00000000	     -7.83725099	     -5.09272163	    -28.22247407	     37.61636947	     90.00000001	      0.00000000	      0.00000000
